<svg width="16" height="16" viewBox="0 0 36 36" fill="none" xmlns="http://www.w3.org/2000/svg">
<path d="M32.1647 36H3.83535C1.74334 36 0 34.2567 0 32.1647V3.83535C0 1.74334 1.74334 0 3.83535 0H32.1647C34.2567 0 36 1.74334 36 3.83535V32.1647C36 34.3438 34.3438 36 32.1647 36Z" fill="#121212"/>
<path d="M26.6731 6.01453L15.6029 20.7458L4.79417 6.6247C4.707 6.45036 4.61984 6.27603 4.707 6.18886C4.79417 6.10169 4.88134 6.01453 5.05567 6.01453H9.06536C9.41403 6.01453 9.58836 6.10169 9.76269 6.36319L17.5206 16.8232L25.1041 6.71186C25.4528 6.27603 26.0629 6.01453 26.6731 6.01453Z" fill="white"/>
<path d="M31.3801 6.01453L13.9467 29.2881C13.598 29.8111 12.9879 30.0726 12.3777 30.0726L29.8111 6.79903C30.1598 6.27603 30.7699 6.01453 31.3801 6.01453Z" fill="white"/>
</svg>
