<?xml version="1.0" encoding="UTF-8"?>
<svg version="1.1" xmlns="http://www.w3.org/2000/svg" width="199" height="37">
<path d="M0 0 C0.7027002 -0.00191345 1.40540039 -0.0038269 2.12939453 -0.00579834 C3.61556354 -0.00715975 5.10174445 -0.00346632 6.58789062 0.00488281 C8.86615646 0.01558346 11.14363377 0.00498661 13.421875 -0.0078125 C14.86458508 -0.0064909 16.30729466 -0.00392849 17.75 0 C19.06742188 0.00225586 20.38484375 0.00451172 21.7421875 0.00683594 C24.875 0.265625 24.875 0.265625 26.875 2.265625 C27.05002995 4.84665806 27.10662279 7.31870663 27.0703125 9.8984375 C27.0674826 10.65027313 27.06465271 11.40210876 27.06173706 12.17672729 C27.05052874 14.58152078 27.02542352 16.98594381 27 19.390625 C26.98997102 21.01952588 26.98084503 22.64843258 26.97265625 24.27734375 C26.95058735 28.27358056 26.91605351 32.26953994 26.875 36.265625 C22.37069147 38.51777926 16.17643789 37.45146947 11.16210938 37.45092773 C8.88392523 37.45311643 6.60622357 37.47128304 4.328125 37.49023438 C2.88541833 37.49316793 1.44270935 37.49515298 0 37.49609375 C-1.31742187 37.50020264 -2.63484375 37.50431152 -3.9921875 37.50854492 C-7.125 37.265625 -7.125 37.265625 -9.125 35.265625 C-9.32448557 32.77995957 -9.40489743 30.4081175 -9.390625 27.921875 C-9.39253845 27.19697876 -9.3944519 26.47208252 -9.39642334 25.72521973 C-9.39778487 24.19197238 -9.39409064 22.6587135 -9.38574219 21.12548828 C-9.37504178 18.77480241 -9.38563808 16.42488077 -9.3984375 14.07421875 C-9.3971159 12.58593581 -9.39455349 11.09765334 -9.390625 9.609375 C-9.39467346 8.90413696 -9.39872192 8.19889893 -9.40289307 7.47229004 C-9.33176151 0.09233469 -6.86448753 0.01175426 0 0 Z " fill="#161616" transform="translate(9.125,-0.265625)"/>
<path d="M0 0 C3.40102578 1.67969028 5.43576989 4.09232547 7.4375 7.3125 C8.37169166 11.77586018 8.29515647 15.89876713 5.8828125 19.8125 C3.47274298 22.77873941 1.69781711 24.8137287 -2.171875 25.23828125 C-7.97794679 25.40542574 -11.48854613 25.06030848 -16 21 C-18.55722964 16.7849801 -18.68347211 12.80930984 -18 8 C-13.9868835 0.11709258 -8.41076456 -1.30008663 0 0 Z M-10.4375 7.5625 C-12.33441535 10.02623116 -12.33441535 10.02623116 -11.9375 13.625 C-11.3249155 17.25516924 -11.3249155 17.25516924 -8 19 C-4.9124407 19.32162076 -2.85984439 19.48724515 -0.125 17.9375 C1.64273274 14.8930714 1.36823916 12.4368988 1 9 C0.01951062 6.93597315 0.01951062 6.93597315 -2 6 C-5.61581862 5.46147382 -7.34111489 5.57763775 -10.4375 7.5625 Z " fill="#111111" transform="translate(91,6)"/>
<path d="M0 0 C3.125 -0.4375 3.125 -0.4375 7 0 C9.38682039 2.06581634 11.20049043 4.41608882 13 7 C15.88157982 5.70177246 17.15186125 4.82761696 19.3125 2.375 C22 0 22 0 25.8125 -0.3125 C26.864375 -0.209375 27.91625 -0.10625 29 0 C27.59155282 3.21524305 25.89655214 5.32183868 23.375 7.75 C22.74335938 8.36359375 22.11171875 8.9771875 21.4609375 9.609375 C20.73777344 10.29773438 20.73777344 10.29773438 20 11 C21.29097861 15.73358822 24.03841543 18.22719461 27.5390625 21.44921875 C29 23 29 23 29 25 C26.21409835 25.46431694 24.68968705 25.68373353 22 25 C18.99851833 22.61969454 16.49292384 19.90085684 14 17 C13.236875 17.763125 12.47375 18.52625 11.6875 19.3125 C10.800625 20.199375 9.91375 21.08625 9 22 C8.54625 22.598125 8.0925 23.19625 7.625 23.8125 C4.94814019 25.76866678 2.19170739 25.18066268 -1 25 C0.47721422 21.54798361 2.43794001 19.35038064 5.125 16.75 C5.84945312 16.04359375 6.57390625 15.3371875 7.3203125 14.609375 C7.87460938 14.07828125 8.42890625 13.5471875 9 13 C7.59795691 9.78521433 5.92902488 7.76085863 3.375 5.375 C1.4609375 3.5859375 1.4609375 3.5859375 0 2 C0 1.34 0 0.68 0 0 Z " fill="#111111" transform="translate(170,6)"/>
<path d="M0 0 C1.12591553 0.00523682 2.25183105 0.01047363 3.41186523 0.01586914 C4.62680664 0.0190918 5.84174805 0.02231445 7.09350586 0.02563477 C8.37290039 0.03401367 9.65229492 0.04239258 10.97045898 0.05102539 C12.2537207 0.05553711 13.53698242 0.06004883 14.85913086 0.06469727 C18.04211921 0.07652994 21.22501661 0.09301471 24.40795898 0.11352539 C24.40795898 2.09352539 24.40795898 4.07352539 24.40795898 6.11352539 C20.77795898 6.11352539 17.14795898 6.11352539 13.40795898 6.11352539 C13.40795898 12.38352539 13.40795898 18.65352539 13.40795898 25.11352539 C11.42795898 25.11352539 9.44795898 25.11352539 7.40795898 25.11352539 C7.40795898 18.84352539 7.40795898 12.57352539 7.40795898 6.11352539 C4.10795898 6.11352539 0.80795898 6.11352539 -2.59204102 6.11352539 C-2.97422869 4.45737882 -3.30599203 2.78895515 -3.59204102 1.11352539 C-2.59204102 0.11352539 -2.59204102 0.11352539 0 0 Z " fill="#111111" transform="translate(133.592041015625,5.886474609375)"/>
<path d="M0 0 C8.91 0 17.82 0 27 0 C27 1.98 27 3.96 27 6 C23.37 6 19.74 6 16 6 C16 12.27 16 18.54 16 25 C14.02 25 12.04 25 10 25 C10 18.73 10 12.46 10 6 C6.7 6 3.4 6 0 6 C0 4.02 0 2.04 0 0 Z " fill="#121212" transform="translate(101,6)"/>
<path d="M0 0 C4.22797927 -0.96891192 4.22797927 -0.96891192 7 0 C10.10641799 3.38734622 12.56788536 7.10861658 15 11 C17.74250664 8.3358507 20.18004554 5.77317639 22.4375 2.6875 C25 0 25 0 28.3125 -0.375 C29.199375 -0.25125 30.08625 -0.1275 31 0 C29.58550799 4.29758229 27.46626491 6.92467865 24.4375 10.25 C20.14034715 15.32532316 18.89176264 18.3975212 19 25 C17.02 25 15.04 25 13 25 C12.96003906 23.84242187 12.92007813 22.68484375 12.87890625 21.4921875 C12.2117328 16.15244652 9.40702591 13.05845109 5.9375 9.125 C4.81774657 7.81840916 3.70165678 6.50866666 2.58984375 5.1953125 C2.09347412 4.62828613 1.59710449 4.06125977 1.08569336 3.47705078 C0 2 0 2 0 0 Z " fill="#111111" transform="translate(43,6)"/>
<path d="M0 0 C1.98 0 3.96 0 6 0 C6 8.25 6 16.5 6 25 C4.02 25 2.04 25 0 25 C0 16.75 0 8.5 0 0 Z " fill="#121212" transform="translate(161,6)"/>
<path d="M0 0 C2.26953125 -0.3125 2.26953125 -0.3125 5 0 C6.94921875 2.1875 6.94921875 2.1875 8.6875 5 C9.74878689 6.69429393 10.84375806 8.369029 12 10 C12.66 10 13.32 10 14 10 C13.34 11.32 12.68 12.64 12 14 C11.01 14 10.02 14 9 14 C7.29476885 12.07388399 5.80449683 10.20475316 4.3125 8.125 C3.89677734 7.56941406 3.48105469 7.01382812 3.05273438 6.44140625 C0 2.28086515 0 2.28086515 0 0 Z " fill="#E6E6E6" transform="translate(5,6)"/>
<path d="M0 0 C3 0 3 0 5 1 C3.55746343 4.36591866 1.66735273 6.51047079 -1 9 C-1 8.01 -1 7.02 -1 6 C-2.98 6.99 -2.98 6.99 -5 8 C-3.63029745 5.04987143 -2.17390875 2.4347778 0 0 Z " fill="#747474" transform="translate(24,8)"/>
</svg>
